<svg viewBox="0 0 24 24" fill="currentColor" xmlns="http://www.w3.org/2000/svg">
<path d="M6.98892 11.5238H14.9668V13.4286H6.98892V11.5238ZM8.98338 19.1429H4.99446V3.90476H11.9751V8.66667H16.9612V11.619L18.9557 9.71429V7.71429L12.9723 2H4.99446C4.4655 2 3.9582 2.20068 3.58416 2.55789C3.21013 2.9151 3 3.39959 3 3.90476V19.1429C3 19.648 3.21013 20.1325 3.58416 20.4897C3.9582 20.8469 4.4655 21.0476 4.99446 21.0476H8.98338V19.1429ZM6.98892 17.2381H11.0776L11.9751 16.381V15.3333H6.98892V17.2381ZM19.1551 12.4762C19.2548 12.4762 19.4543 12.5714 19.554 12.6667L20.8504 13.9048C21.0499 14.0952 21.0499 14.4762 20.8504 14.6667L19.8532 15.619L17.759 13.619L18.7562 12.6667C18.856 12.5714 18.9557 12.4762 19.1551 12.4762ZM19.1551 16.1905L13.072 22H10.9778V20L17.0609 14.1905L19.1551 16.1905Z" fill="currentColor"/>
</svg>
